<?xml version="1.0" encoding="UTF-8" standalone="no"?>
<svg xmlns="http://www.w3.org/2000/svg" version="1.2" baseProfile="tiny-ps" viewBox="0 0 1024 1024" width="1024" height="1024"><title>FRED</title><path fill="#dadada" d="M0 0h23v25h23V0h22v25h23v26H68V26H46v25h21l1 4v22H46v25l22 1v25h23v-26l-23 1V77h23v25h43q-7 8-15 14l-10 9-5 4H91v17q-1 7-7 8l-15-1-1-24H46v-26H23v25l19 1q3-1 4 3v21l-23 1v25l23 1v25h17l-7 26H46v26h7v25l-7 1v24h7v27h-7q0-12-1-25-6-2-12-1h-9l-1 6v20h22l1 25h7v26h-7v25l7 1v25l-7 1v24l7 1v25h-7v25h7v25l-7 1v25h7v25h-7v-25H23v25h23v13l5 1v25H26v-19l-2-8q-3-5-2-12l-22 1v-26l23-1v-24H0v-26h23v-25H0v-26h23v-25H0v-26h23v-25H0v-26h16l6-1 1-8-1-16H0v-26h23v-25H0v-26h23v-26H0v-26h22l1-18-1-6q-1-2-4-2l-18 1v-26l23-1-1-24H0v-27q12 2 22-1l1-24h23V51H23V26H0z"/><path fill="#fdfdfd" d="M23 0h23v25H23zM68 0h45v25q11 3 23 0V0h23v26h-23v25H92l-1 26h22l23 1v23l16-10q4-1 6-4 3-5 2-10h21q2-13 1-26h-22l-1-25h23v25h23V26h22v25h-22v18l23-4V51h22v13h23V51h23V27q0-2-3-2-8-1-17 1-2-1-3-5V0h46v26l22 1v24h-22v13h22l1-11q1-2 4-2h18l1 13h22V51h-23l1-25h22v25h22l1 13h23V51h22v13h23V51h-23V26h23v25h18q3-1 4 2v11h23l1-13h22V26h23v25h-23v13h23V51h22V26l-22-1V0h23v26h22v25h23v13h23V51h-23V26h23v25h22l1 13h22V52l23-1v13h23V52l18-1q3-1 4 2l1 11 22 1 1-11q0-2 4-3l18 1v18l22 6q2-12 1-25h-23l1-25h23v27l7-2c8-1 16 2 24 1h13v25h-23l-18 1 23 11 18 12V77h23v25h-21l14 12 8 6v-17h22l-1 25-13 1q6 9 14 17v-17h23v24l-18 1 9 15 5 11h3v-21q1-4 3-5h20v25h23v-25h23v25l-23 1v25h23v26h-23v-26h-23v-25h-18q-4-1-4 3 2 11 5 22h17v26h-10l2 26h8v-26h23v25l23 1v25h-23v-25h-22q-1 13-1 25h-7v26h7l1 26h22v25h-23q1-12-1-25h-6v25h7v26h-7v25h7l1-25h22v25h23v26h-23v26h-23v-26l-7 1v24l7 1v24l-7 1v25h7v26h23v25h-23v-17l-1-8q-4-1-6 3v21l6 2q2 11 1 24h-7q0 13 2 26l-2 24q2 15 2 29l-2 17 1 18c2 7 0 15 2 23l16-1h7l1 4v21h-25l-1-24q-2 13 1 27-1 11 1 21l24-1v24h-23q-3-1-2-4 0-11-1-21-3 11-4 24l6 2-1 22-10 1-2 3-8 22h20v25h-25l-1-13-8 13 7 1q2 12 1 24h-25v26q-15 1-29-1h1l12-11-2-6-10-34-14-32q-11-27-26-51l-20-31q-12-18-26-33l-17-19-21-17 22-19a225 225 0 0 0 60-94q10-33 10-67 1-43-11-84-6-25-15-49h18q17-5 24-21 9-16 13-33 6-22 8-45 2-18-5-35-5-13-14-22-18-17-40-26-24-11-51-18-27-8-55-2-19 4-35 16l-8 6-9-5q-21-12-43-21-29-12-59-18a344 344 0 0 0-213 26q-17 8-33 18-12-9-25-16-14-6-29-8-26-1-51 5-21 7-41 16-21 9-38 22a66 66 0 0 0-24 45q-1 31 8 61 3 17 11 32 7 14 19 21 12 4 25 1-10 28-17 56-9 35-10 71a221 221 0 0 0 79 175l13 12-19 16q-31 30-55 68a492 492 0 0 0-61 140l18 15 16 11-1 11h-24l-1-26h-25q-1-13 1-26H77v-25h8l-7-12-1-1v13H51v25q13 0 25 1v25H54q-4 1-3 5v21h25v21q0 3-2 5l-23-1v-25H26v-26h25v-26H26v26H0v-26h26v-25H0v-25h25l1 25h25l1-25q9-1 18 1l-4-14-4-11-3-2h-8v-23H26v23H0v-22h16q5 0 9-2 1-11 1-23h25v-23H26v-25h25q0 14 1 25l1-17-2-16v-15H26v-25h25q-1 13 1 26l1-8-1-17q-2-12-1-25H26v-16l-1-8-5-1H0v-38l22-1q-1 7 2 12l2 8v19h25v-25l-5-1v-13H23v-25h23v25h7v-25h-7v-25l7-1v-25h-7v-25h7v-25l-7-1v-24l7-1v-25l-7-1v-25h7v-26h-7l-1-25H23v-20l1-6h9q6-1 12 1 1 13 1 25h7v-27h-7v-24l7-1v-25h-7v-26h10l7-26H46v-25l-23-1v-25l23-1v-21q-1-4-4-3l-19-1v-25h23v26h22l1 24 15 1q6-1 7-8v-17h13l5-4 10-9q8-6 15-14H91V77H68v26l23-1v26H68v-25l-22-1V77h22V55l-1-4H46V26h22v25h23V25H68z"/><path fill="#dadada" d="M113 0h23v25q-12 3-23 0z"/><path fill="#dadada" d="M159 0h23v25h23V0h23v25h22V0h23v21q1 4 3 5 9-2 17-1 3 0 3 2v24h-23v13h-23V51h-22v14l-23 4V51h22V26h-22v25h-23V26h-23l1 25h22q1 13-1 26h-21q1 5-2 10-2 3-6 4l-16 10V78l-23-1H91l1-26h44V26h23z"/><path fill="#fdfdfd" d="M182 0h23v25h-23zM228 0h22v25h-22z"/><path fill="#dadada" d="M319 0h23v25h22V0h23v25h23V0h23v25l16 1 6-1V0h23v26h22V0h24v25h22V0h23v25l22 1v25h-22v13h-23V51h23V26h-23v25h-22l-1 13h-23V53q-1-2-4-2h-18V26h-23v25h23v13h-23V51h-22v13h-23l-1-13h-22V26h-22l-1 25h23v13h-22l-1-13h-18q-3-1-4 2l-1 11h-22V51h22V27l-22-1z"/><path fill="#fdfdfd" d="M342 0h22v25h-22zM387 0h23v25h-23zM433 0h22v25l-6 1-16-1zM478 0h22v26h-22zM524 0h22v25h-22z"/><path fill="#dadada" d="M592 0h22v25h23V0h23v25l3 1 19-1 1-25h45v25h23V0h45l1 25h22V0h46l-1 25 16 1q4 1 7-2V0h24v25h22V0h23v20q-1 4 2 5h20V0h23v25l23 1v25h-23l1 26h22v26h-23v25h23v26h-23v25h-23v-25h-20q-2 1-3 5v21h-3l-5-11-9-15 18-1v-24h-23v17q-9-8-14-17l13-1 1-25h-22v17l-8-6-14-12h21V77h-23v24l-18-12-23-11 18-1h23V52h-13c-8 1-16-2-24-1l-7 2V26h-23l-1 25h23q1 13-1 25l-22-6V52l-18-1q-3 1-4 3l-1 11-22-1-1-11q-1-2-4-2l-18 1v12h-23V51l-23 1v12h-22l-1-13h-22V26h-23v25h23v13h-23V51h-23V26h-22z"/><path fill="#fdfdfd" d="M614 0h23v25h-23zM660 0h23l-1 25-19 1-3-1V0M728 0h23v25h-23zM796 0h23v25h-22zM865 0h22v24q-3 2-7 2l-16-1zM911 0h22v25h-22zM956 0h22v25h-20q-2-1-2-5zM1001 0h23v26l-23-1zM23 26v25h23v26H23l-1 24q-10 3-22 1V77h23V52q-11-2-23-1V26zM258 26h15v25h-23l1-24zM432 26v25h-22V26zM690 26h15v25h-22V26zM501 26h23v25h-24zM774 26h22l1 25h-24l1-14zM888 26q11-2 22 1v24h-22l-1-16zM935 26h21v25h-23V30q0-3 2-4M979 26h22v25h-23z"/><path fill="#dadada" d="M0 51q12-1 23 1v25H0z"/><path fill="#fdfdfd" d="M137 51h22l1 26h-23z"/><path fill="#dadada" d="M592 51q11-1 23 1l-1 12h-22z"/><path fill="#fdfdfd" d="M911 51h22v26h-22zM956 51h22v26h-22v25h-23V77h22l1-15zM1024 51v26h-22l-1-26zM1001 77v25h-22V77zM978 103v25h-22v-25zM1024 103v25h-23v-25zM0 129h22l1 24-23 1zM979 129h22v25h-17l-5-1-1-14z"/><path fill="#12223f" d="M580 149a303 303 0 0 1 102 39l9 5 8-6q16-12 35-16 28-6 55 2 27 7 51 18 22 9 40 26 9 10 14 22 7 17 5 35-2 22-8 45-4 17-13 33-7 16-24 21h-18q9 24 15 49 11 41 11 84a222 222 0 0 1-30 112q-16 28-40 49l-22 19 21 17 17 19q14 15 26 33l20 31q15 24 26 51l14 32 10 34 2 6-12 11q-6-15-10-30a395 395 0 0 0-29-70q-8-17-18-32-10-17-22-33l-16-20-18-19-6-4-9 6 25 26 18 23 13 16 18 29 14 27q17 35 28 71l4 15a215 215 0 0 1-37 21l-6 2a157 157 0 0 1-50 11l-24 1H558l3-6q1-3-1-7l-5-20-5-16-7-22-7-26-4-14-39 1-6 20-8 29-12 43-2 10q-1 4 1 8H258l-29-1a160 160 0 0 1-50-11 183 183 0 0 1-42-23q5-11 8-23l11-31q8-21 19-40l19-35 28-39 13-15 14-15 11-9-11-7q-7 5-12 11a282 282 0 0 0-53 70q-13 24-24 49l-13 31q-10 25-15 49l-13-11a471 471 0 0 1 135-224l-13-12q-34-28-54-67-26-51-25-108a329 329 0 0 1 27-127q-12 3-25-1-12-7-19-21-8-15-11-32-9-30-8-61 3-28 24-45 18-13 38-22 20-10 41-16 26-6 51-5a98 98 0 0 1 54 24q16-10 33-18 41-19 86-28 63-10 127 2"/><path fill="#dadada" d="M46 154h22v21q1 4 3 6l-3 6v-7H46zM570 163q42 8 81 26l20 11 21 12 12-10 12-7q19-12 42-11 33 1 63 16-8-1-14-3-6-3-14-6l-20-4-22-1-15 3q-9 1-16 5l-22 18q-5 2-10 1l-7-5-23-13q-12-7-27-12l-20-8-16-4-18-5q-14-3-26-3-17-3-35-3h-16q-12 0-24 2c-14 3-28 2-42 7q-14 5-28 9l2-3q80-27 162-12"/><path fill="#f7c3c0" d="M516 160q18 0 35 3 12 0 26 3l18 5 16 4 20 8q15 4 27 12l23 13 7 5q5 1 10-1l22-18q7-4 16-5l15-3 22 1 20 4q8 3 14 6 6 2 14 3a302 302 0 0 1 45 25q13 11 17 27 2 22-2 43-5 24-15 47l-2-1 7-17 6-26q3-8 3-17 2-9-1-20t-13-20q-7-7-16-12l-23-11q-11-5-23-9l-19-7-24-3q-10-1-21 2-23 6-39 25l-7 5q-5 0-9-4-25-17-54-29l-24-8q-16-6-33-8a328 328 0 0 0-108-3l-19 4q-19 4-37 10-16 5-31 12l-25 14-17 10q-3 3-8 1l-13-11c-7-6-15-14-24-16l-15-4q-20-1-40 4l-19 6q-11 4-22 9l-28 16-14 11-9 15q-2 9-3 19-3-16 1-31 5-15 18-26 13-9 29-16 25-13 52-19 23-5 45-1 19 5 34 16l11 10 13-8q30-18 63-29l-2 3q14-4 28-9c14-5 28-4 42-7q12-2 24-2z"/><path fill="#f69c9a" d="M516 176a328 328 0 0 1 91 14l24 8q29 11 54 29 4 4 9 4l7-5q16-18 39-25 10-3 21-2l24 3 19 7q12 4 23 9l23 11q9 5 16 12 9 8 13 20 3 11 1 20 0 9-3 17l-6 26-7 17-16-1q-13-5-24-14a155 155 0 0 1-41-46q-13-20-24-41-4-10-12-18l-8-3-4 1q-3 3-2 6l3 21 7 25q5 14 12 26l8 14 15 22 19 18 10 26a315 315 0 0 1 15 129c-5 44-28 85-59 115q-9 11-20 18-32 27-71 43l-26 10a387 387 0 0 1-120 22 522 522 0 0 1-184-27q-30-12-59-28l-22-15q-13-10-25-21-27-25-44-59-7-14-12-28-5-37 1-75 5-30 14-58l11-31q2-6 7-10 18-12 33-29a200 200 0 0 0 46-107q-1-4-3-8-4 0-9 2-8 6-14 16l-13 26-15 24-14 17q-9 13-22 22-10 9-22 14-11 4-22 1-9-19-13-39-2-10-3-22 2-10 3-19l9-15 14-11 28-16q11-5 22-9l19-6q20-5 40-4l15 4c9 2 17 10 24 16l13 11q5 2 8-1l17-10 25-14q15-7 31-12 18-7 37-10l19-4q24-4 50-3"/><path fill="#fdfdfd" d="M18 179q3 0 4 2l1 6-1 18H0v-25z"/><path fill="#dadada" d="M1024 179v26h-23v-25zM960 180h18v25h23v26h23v26l-23-1v-25h-23v26h-8l-2-26h10v-26h-17q-3-11-5-22 0-4 4-3"/><path fill="#fdfdfd" d="M23 205h23l-1 25H23z"/><path fill="#dc7275" d="M289 218q-4 1-6 4l-6 20q-9 24-21 49-15 27-37 48-15 13-35 19-11 1-19-5l-7-13q11 3 22-1 12-5 22-14a175 175 0 0 0 36-39l15-24 13-26q6-9 14-16 5-3 9-2M747 221q7 7 12 18 11 21 24 41a218 218 0 0 0 41 46q10 8 24 14l16 1 2 1q-3 9-11 14-9 4-18 1-13-5-25-14-11-8-18-17-18-19-29-43-11-21-18-45-3-11-8-20z"/><path fill="#fdfdfd" d="M23 231v26H0v-26zM23 257h22l1 6-1 19H23v-25"/><path fill="#dadada" d="M979 257h22v25h23v26h-22q-2 12-1 26h23v25h-23v26h23v25h-23v-25h-22l-1 25h-7v-25h7v-26h-7v-25h6q2 12 1 25h23v-25h-22l-1-26h-7v-26h7q0-12 1-25"/><path fill="#fdfdfd" d="M23 283v25H0v-25zM981 283l17-1q2 0 3 2v24l-23-1v-21q1-3 3-3"/><path fill="#3b2425" d="M369 287q16-1 29 6 11 6 12 18 0 6-4 11-6 4-13 2-10-2-22-3-37-2-69 18-6 4-12 7-5 1-5-4 0-8 6-14c19-23 48-39 78-41M647 287q20-1 38 6a114 114 0 0 1 52 37q4 6 4 12 1 5-5 4-6-3-12-7-32-20-70-18l-21 3q-7 2-13-2-4-5-4-12 1-10 10-15 9-7 21-8"/><path fill="#fdfdfd" d="M1002 308h22v26h-23q-1-14 1-26M22 334l1 16-1 8-6 1H0v-25z"/><path fill="#dc7275" d="m797 351 16 11q4 5 6 10l7 18 8 28q7 24 10 49 7 42-2 83-4 23-15 44l-11 20q-6 10-13 18-19 24-44 42a321 321 0 0 1-134 60 506 506 0 0 1-331-40q-24-15-45-34a250 250 0 0 1-52-66q-13-28-17-58 5 14 12 28 17 34 44 59 12 11 25 21l22 15a348 348 0 0 0 119 45 522 522 0 0 0 174 6q36-6 70-18l26-10q39-16 71-43 11-7 20-18a199 199 0 0 0 61-136q1-55-17-108z"/><path fill="#3b2425" d="M334 354q17-3 32 2a67 67 0 0 1 46 53c4 21-3 43-18 58a69 69 0 0 1-71 17q-10-4-20-10-10-9-18-21a69 69 0 0 1-3-59c9-21 29-37 52-40M670 353q17-1 32 3a68 68 0 0 1 38 96q-11 19-31 30a69 69 0 0 1-90-33 68 68 0 0 1 11-75q17-17 40-21"/><path fill="#12223f" d="M694 357q17 3 30 16 9 7 14 17a73 73 0 0 1 7 37q-1 8-4 15l-6 14-9 10-13 10-9 5-9 2-15 2-15-2-11-2-9-6-7-6q-5-3-8-8-4-3-6-7l-4-8-3-10q-6-22 3-42 6-14 18-24 7-6 15-9 10-4 21-5 10-2 20 1M343 356q9-1 18 1 19 5 33 20 11 12 15 28 2 9 1 18l-1 13-4 10-10 17q-10 8-21 15-4 4-10 5-11 3-23 2l-16-3q-7-2-12-6l-11-6-8-10q-5-5-8-12-5-12-6-24-1-18 7-33 7-13 18-23 18-12 38-12"/><path fill="#fdfdfd" d="M23 359h23v26H23zM1024 359v26h-23v-26zM363 379q8-2 15 1 12 8 10 21-1 6-5 10-6 6-16 6-13-3-16-17-1-15 12-21M649 379q13-3 21 6c7 8 6 21-2 27-6 6-18 6-24 0q-7-5-7-13 0-14 12-20M0 385h23v25H0zM46 410v26H23v-26z"/><path fill="#dadada" d="M979 411h22v25h-23v-17z"/><path fill="#12223f" d="M533 413q18 4 33 11 14 8 26 19 23 24 25 57 2 25-13 45-8 10-18 18a226 226 0 0 0 55-22l-4-7q-1-4 2-5 6-1 12 3 10 6 15 16l-1 6h-7l-6-3q-8 19-19 36a131 131 0 0 1-55 45q-37 16-78 13-29-2-56-14-15-7-27-18-9-7-16-15l-16-22-12-24-4 1h-8q3-13 14-18 4-3 10-3l1 6-1 3q16 10 34 16l21 6q-11-7-19-17-13-18-14-40 0-18 7-35t20-29q17-17 41-24 29-10 58-5"/><path fill="#f7c3c0" d="M509 424q23-1 45 9 27 11 42 36 5 11 8 24v4q-2-11-9-21-6-10-15-18c-23-18-53-25-82-21q-13 1-27 6-16 7-29 19-9 7-13 17-7 8-9 19 0-13 7-24 6-13 17-24 14-13 32-20 17-5 33-6"/><path fill="#fdfdfd" d="M0 436h23v25H0z"/><path fill="#f57b7c" d="M580 458q9 8 15 18 7 10 9 21 0 10-4 17-9 14-21 23-16 11-35 15l-20 3q-25 1-49-5-15-4-27-12-10-5-16-13l-8-12-1-14q2-10 6-20t13-17q13-12 29-19 13-5 27-6c29-4 59 3 82 21"/><path fill="#dadada" d="M978 436v26h23v-26h23v25h-23v26h23v25h-22v25l22 1v25h-23v25h23v14h-24l1-13h-23v13l21 1-1 24h26v25h-25l-1-25h-25v25h26l-1 24h26v25h-26v-25h-25v25h25v23h26v25h-16l-9 1-1 22h26v25l-26-1v23h26v26l-25-1-1-24h-25v19q-1 4 3 5l22 1v25h-25v25l-25 1v25h25v-26h25v26h-25v24q-1 2-3 2h-22l-1-25h-25v25h-51l1-11h-1l15-11 7-5q14 2 29 1v-26h25q1-12-1-24l-7-1 8-13 1 13h25v-25h-20l8-22 2-3 10-1 1-22-6-2q1-13 4-24 1 10 1 21 0 3 2 4h23v-24l-24 1q-2-10-1-21-3-14-1-27l1 24h25v-21l-1-4h-7l-16 1c-2-8 0-16-2-23l-1-18 2-17q0-14-2-29l2-24q-2-13-2-26h7q1-13-1-24l-6-2v-21q2-4 6-3l1 8v17h23v-25h-23v-26h-7v-25l7-1v-24l-7-1v-24z"/><path fill="#fdfdfd" d="M46 462v25H23v-25zM1024 461v26h-23v-26z"/><path fill="#f69c9a" d="M478 468q8 1 11 10 4 12 1 24-2 8-6 15l-8 8q-9 5-18-1-5-6-7-13v-13l5-13q2-7 7-12 6-7 15-5M549 467q9-1 14 7 4 4 5 10l5 11v13q1 6-3 11-3 5-8 8-8 2-14-2l-8-7-4-9q-3-11-3-21 1-10 7-18 4-4 9-3"/><path fill="#3b2425" d="M472 469q8-1 13 5 6 11 4 24-2 11-9 21-5 7-13 7-10-2-12-11-4-19 5-34 5-8 12-12M546 469q11-1 17 8 9 15 8 33-1 8-7 13-7 6-15-1-11-9-13-24-2-10 2-20 2-7 8-9"/><path fill="#12223f" d="M473 473h8q4 4 5 10 1 13-2 25-3 10-13 14-6 2-10-2-4-5-5-12 0-12 5-24 3-8 12-11M547 473q11 0 16 9 7 14 5 30-2 6-8 10-5 2-10-2-7-6-9-14-5-12-2-25 3-6 8-8"/><path fill="#f69c9a" d="M429 479q-4 10-6 20l1 14-4-10v-5q2-11 9-19"/><path fill="#fdfdfd" d="M0 487h23v25H0zM1001 487v25h-23l1-24z"/><path fill="#f57b7c" d="M272 489q20-2 38 3 13 4 22 14 7 8 5 19-4 9-12 14-11 7-23 9l-23 1q-18 0-34-9-8-5-12-14-3-10 3-20 7-8 16-11 10-5 20-6M727 489h17q18 0 34 8 10 6 14 16 3 9-3 17-7 11-20 14-9 5-20 5-17 2-32-3-16-4-26-15c-6-7-5-18 1-24q14-16 35-18"/><path fill="#dc7275" d="m604 493 1 16q-2 10-6 19-7 14-19 23t-26 13a139 139 0 0 1-88-2q-12-4-22-12-9-6-15-15-9-15-9-32l4 10 8 12q6 8 16 13 12 8 27 12 24 6 49 5l20-3q19-4 35-15 12-9 21-23 4-7 4-17z"/><path fill="#fdfdfd" d="M23 512h23v25l-23 1zM1024 512v26l-22-1v-25z"/><path fill="#3b2425" d="M380 529q4-2 8 1 2 5-2 8l-1-6q-6 0-10 3-12 5-14 18h8q-4 4-10 4-3-3-1-8 3-6 9-10 5-6 13-10"/><path fill="#fdfdfd" d="M23 538v24l-23 1v-25z"/><path fill="#3b2425" d="m666 548 2 6-3 3q-4-1-7-3h7z"/><path fill="#fdfdfd" d="M1024 563v25h-23v-25z"/><path fill="#dadada" d="m399 563 23 8a283 283 0 0 0 142 10q32-5 62-18-2 8-8 14-6 7-16 10c-8-4-14 0-23 1q-15 4-31 5a312 312 0 0 1-110-6q-8-4-15 0-8-3-15-10-6-6-9-14"/><path fill="#fdfdfd" d="M438 587a295 295 0 0 0 110 6q16-1 31-5c9-1 15-5 23-1q-11 5-23 9l-15 5q8 3 15 2 14-1 28-6-11 12-26 20a131 131 0 0 1-57 15q-37 2-73-12-19-7-32-22l16 3q12 4 25 1l-15-6q-11-4-22-9 8-4 15 0M1001 589l-1 13h24v25h-26l1-24-21-1v-13z"/><path fill="#dadada" d="M0 627h20l5 1 1 8v16h25q-1 13 1 25l1 17-1 8q-2-13-1-26H26v25h25v15l2 16-1 17q-1-11-1-25H26v25h25v23H26q0 12-1 23-4 3-9 2H0v-25h25v-23H0v-25h25v-23H0v-25h25v-24H0zM53 627q1 12-1 26l-1-9v-16z"/><path fill="#fdfdfd" d="M973 627h25l1 25h25v24h-26l1-24h-26zM0 652h25v24H0z"/><path fill="#dc7275" d="m479 658 11 2q20 4 40 1 10-2 20-2-1 4-4 6l-11 7q-22 7-43 0-11-2-17-11z"/><path fill="#fdfdfd" d="M973 676h25v25h26v23h-26v-23h-25zM0 701h25v23H0z"/><path fill="#2152a4" d="m249 711 11 7-11 9-14 15-13 15-28 39-19 35q-11 19-19 40l-11 31q-3 12-8 23l-5-4q5-25 15-49l13-31q11-25 24-49a446 446 0 0 1 53-70q5-6 12-11M775 712l6 4 18 19 16 20q13 16 22 33 10 15 18 32 8 15 15 31l14 39q4 15 10 30h-1l-7 5-4-15q-11-36-28-71l-14-27-18-29-13-16-18-23-25-26z"/><path fill="#dadada" d="M361 739a462 462 0 0 0 122 22l-18 18q-12 2-24-1l-26-3-35-7q-4-2-7 0zM664 739l-11 28-19 3q-27 6-55 9-9 1-16 3l-20-21 22-2q51-5 99-20"/><path fill="#fdfdfd" d="M0 749h25v23H0zM1008 749h16v23h-26l1-22z"/><path fill="#2152a4" d="M523 763q4 2 7 6l25 27q-5 11-12 23-5-9-15-13l-19-14-11-9q-7-3-13-2l12-14 7-5h14z"/><path fill="#fdfdfd" d="m380 768 35 7 26 3q12 3 24 1l-25 30-15 18-12-11-16-14-15-15q-6-9-9-19 3-2 7 0M653 767l-7 16-13 14q-16 16-33 30l-22-28-15-17q7-2 16-3 28-3 55-9z"/><path fill="#dadada" d="m52 771 2 6 2 20-5-1q-1-12 1-25"/><path fill="#4090e6" d="M485 781q7-1 13 2l11 9 19 14q10 4 15 13l-9 15h-13q-5-1-9-6-12-8-25-18l-13-8-4-6z"/><path fill="#dadada" d="M26 796h25v23h8l3 2 4 11 4 14q-9-2-18-1l-1 25H26l-1-25H0v-26h26z"/><path fill="#fdfdfd" d="M1024 797v22h-26v-23z"/><path fill="#2152a4" d="m474 802 13 8q13 10 25 18 4 5 9 6h13l-27 1-14-1q-4-2-6-6z"/><path fill="#dadada" d="m565 808 24 30q3 5 9 7 8-1 14-9l16-13-10 22-4 7v-3q-6 7-14 10-6 2-10-4l-25-24-16 25-3-12 4-8q9-13 15-28M460 808l14 27 5 9-4 13q-2-8-7-14-2-8-8-12l-16 17q-6 7-13 12-4 1-7-1l-14-12v2l-12-25 24 19q4 4 9 0l11-12q8-12 18-23"/><path fill="#fdfdfd" d="m31 819 20 1v24H26v-24zM998 820l1 24 25 1v25h-26v25h26v26h-25q-2 12-1 26h26v26h-26v25h-25v-25h25v-23q0-4-4-3h-21v26h-25v-26h-24q-2 2-2 5v21h-51v25l-25 1v25h-26v-25l-25-1v-25h-26v-13l24-1q3 7 2 14h25v25h25v-25h21q3 1 5-2v-14l-1-10q-11 1-21-1l22-10h1l-1 11h51v-25h25l1 25h22q1 0 3-2v-24h25v-26h-25v26h-25v-25l25-1v-25h25v-25l-22-1q-4-1-3-5v-19zM460 831q6 5 8 12 5 5 7 14l-8 28-7 24-7 26-15-29-16-32-12-25v-2l14 12q3 2 7 1 7-5 13-12zM565 831l25 24q4 6 10 4 8-3 14-10v3l-20 40-22 43-11-38q-5-20-12-41z"/><path fill="#2152a4" d="m493 850 39-1 4 14-2-2q-7 4-12 9l-43 29 8-29z"/><path fill="#dadada" d="m77 857 1 1 7 12h-8v25h26q-2 13-1 26h25l1 26h24l1-11 21 10q-10 2-21 1v24q-1 2-4 2h-21v-26h-26v-25H77v25h25v26H77l-1 25h26v-25h25v25h-25v26H77v-25l-26-1v-25H26l-1 25H0v-25h25v-26H0v-26h26v-26h25v26H26v26h25v25l23 1q3-2 2-5v-21H51v-21q-1-4 3-5h22v-25q-12-1-25-1v-25h26z"/><path fill="#4090e6" d="m534 861 2 2 7 26-17 11-19 15q-21 13-40 27l12-43 43-29q5-5 12-9"/><path fill="#dadada" d="M0 870h26v25H0zM1024 870v25h-26v-25z"/><path fill="#2152a4" d="m543 889 7 22 5 16q-11 5-19 12l-29 21h-41q-2-4-1-8l2-10q19-14 40-27l19-15z"/><path fill="#dadada" d="M999 921h25v26h-26q-1-14 1-26"/><path fill="#fdfdfd" d="M77 922h25v25h26v26h21q3 1 4-2v-24q11 1 21-1l5 2v24l25 1q1-8-2-15l2-3q13 3 25 4l1 14h25v25h-26v-25h-25v25h25v26h-25v-26l-25 1v25h-26v-26h-25v26h-26v-26h25v-25h-25v25H76l1-25h25v-26H77z"/><path fill="#4090e6" d="m555 927 5 20q2 4 1 7l-3 6h-51l29-21q8-7 19-12"/><path fill="#dadada" d="M849 946q11 2 21 1l1 10v14q-2 2-5 2h-21v25h-25v-25h-25q1-7-2-14 14-1 27-4v18h25l1-20-3-5zM998 950v23h-25v25h25v-25h26v26h-25v25h-26v-26l-17 1-8-1-1-9v-16h-25v25h25v26h-51v-25h-25v25h-25v-25l25-1v-25h51v-21q0-3 2-5h24v26h25v-26h21q4-1 4 3"/><path fill="#fdfdfd" d="M0 947h25v26H0z"/><path fill="#dadada" d="m179 948 25 7-2 3q3 7 2 15l-25-1z"/><path fill="#fdfdfd" d="m843 948 3 5-1 20h-25v-18q12-2 23-7"/><path fill="#dadada" d="m229 959 29 1-3 1v12h25v-13h27l-1 13h-25l-1 25h-25v26h-26v-26h-25v-25h25v25h26v-25h-25z"/><path fill="#fdfdfd" d="M258 960h22v13h-25v-12zM307 960h24l1 13h-26v25h-25v26h-26v-26h25l1-25h25z"/><path fill="#dadada" d="M331 960h26v13h26v25h27v-25h25v-13h129l-1 13-25-1v-11h-26v12h26v24q2 2 5 1h20v-25h26v25h25l1-25h26v25h26v26h-26v-25l-21-1-5 1v25h-26v-26l-25 1-1 25h-25v-26l-26 1v25h-26v-26l-25 1v25h-26v-25h-25v25h-27v-25l-26-1v-25h-25q0 13-1 25l-25 1v25h-25v-26h25v-25h26z"/><path fill="#fdfdfd" d="M357 960h26v13h27v-13h25v13h-25v25h-27v-25h-26z"/><path fill="#dadada" d="M383 960h27v13h-27z"/><path fill="#fdfdfd" d="M564 960h25v13h25l1-13h25l1 13h26v-13h25v13h26v25h-26v-23q-1-3-4-2h-21v24q1 2 4 2h21v25h-25v-26h-26v-25h-26l-1 25h-25v-25h-26v25h-20q-3 1-5-1v-24h-26v-12h26v11l25 1z"/><path fill="#dadada" d="M589 960h26l-1 13h-25zM640 960h27v13h-26zM692 960h26v13h26l-1-13h26v13h26v25l25 1v25h-25v-26h-26v-25h-25v25h25v26h-26v-26l-25 1v25h-26v-25h-21q-3 1-4-2v-24h21q4 0 4 2v23h26v-25h-26z"/><path fill="#fdfdfd" d="M718 960h25l1 13h-26zM461 961h25v12h-25z"/><path fill="#dadada" d="M178 973v25h-25v-25z"/><path fill="#fdfdfd" d="M26 973h25v25l26 1v25H51v-26H26v26H0v-26h25zM332 973h25v25l26 1v25h-26v-25l-25-1v26h-26v-25l25-1q1-12 1-25M461 973l-1 25h-25v-25zM512 973v25h-26l1-25zM744 973h25v25h26v26h-26v-26h-25zM922 973h25v16l1 9 8 1 17-1v26h-26v-26h-25z"/><path fill="#dadada" d="M26 998h25v26H26zM128 998h25v26h-25zM204 998v26h-25v-25zM332 998l25 1v25h-25z"/><path fill="#fdfdfd" d="M435 999v25h-25v-25zM486 998v26h-25v-25zM538 998v26h-26v-25zM564 999l25-1v26h-26zM620 998l21 1v25h-26v-25zM743 998v26h-25v-25zM871 999h25v25h-25zM999 999h25v25h-25z"/></svg>