<?xml version="1.0" encoding="UTF-8" standalone="no"?>
<svg xmlns="http://www.w3.org/2000/svg" version="1.2" baseProfile="tiny-ps" viewBox="0 0 474 474" width="474" height="474" preserveAspectRatio="xMidYMid meet" xml:space="preserve">
<title>FRED</title>
<rect width="474" height="474" fill="#ffffff"/>
<g transform="translate(0, 124.5)">
<path d="M65.3 104.7H111.5L106.1 131.4H60.05L65.3 104.7ZM55.7 165H20.3L41.3 60H126.65L121.25 86.7H71.3L55.7 165Z" fill="#135BEC"/>
<path d="M116.833 165L137.833 60H184.933C198.833 60 209.583 63.05 217.183 69.15C224.783 75.15 228.583 83.6 228.583 94.5C228.583 103.3 226.383 111 221.983 117.6C217.683 124.2 211.533 129.35 203.533 133.05C195.633 136.75 186.283 138.6 175.483 138.6H141.583L160.483 123.75L152.233 165H116.833ZM181.033 165L159.433 126.75H195.883L217.783 165H181.033ZM159.583 127.95L147.133 111.9H177.283C182.183 111.9 185.983 110.7 188.683 108.3C191.383 105.8 192.733 102.35 192.733 97.95C192.733 94.15 191.533 91.45 189.133 89.85C186.833 88.15 183.633 87.3 179.533 87.3H152.083L170.983 70.8L159.583 127.95Z" fill="#135BEC"/>
<path d="M274.201 99H321.001L315.901 124.5H269.101L274.201 99ZM268.651 138.3H321.301L315.901 165H228.601L249.601 60H334.951L329.551 86.7H279.001L268.651 138.3Z" fill="#135BEC"/>
<path d="M329.529 165L350.529 60H397.929C409.029 60 418.579 61.8 426.579 65.4C434.579 69 440.729 74.15 445.029 80.85C449.329 87.45 451.479 95.35 451.479 104.55C451.479 113.85 449.829 122.2 446.529 129.6C443.329 137 438.779 143.35 432.879 148.65C427.079 153.95 420.179 158 412.179 160.8C404.179 163.6 395.379 165 385.779 165H329.529ZM370.479 137.4H386.979C393.279 137.4 398.529 136.05 402.729 133.35C407.029 130.55 410.279 126.85 412.479 122.25C414.679 117.55 415.779 112.35 415.779 106.65C415.779 102.55 414.929 99.1 413.229 96.3C411.629 93.5 409.179 91.35 405.879 89.85C402.679 88.35 398.679 87.6 393.879 87.6H380.379L370.479 137.4Z" fill="#135BEC"/>
</g>
</svg>
