<?xml version="1.0" encoding="UTF-8" standalone="no"?>
<svg xmlns="http://www.w3.org/2000/svg" version="1.2" baseProfile="tiny-ps" viewBox="0 0 1024 1024" width="1024" height="1024"><title>FRED</title><path fill="#dbdbdb" d="M0 0h23v25h23V0h22v25h23v26l-22 1-1-26H46v25h21l1 4v22H46v25l22 1v25h23v-25l-7-1-16 1V77h23v25h35l8 2q-11 7-20 17-4 4-8 7l-15 1v17q-1 6-7 8l-15-1-1-24H46v-26H23v25l19 1q3-1 4 3v21l-23 1v25l23 1v25h17l-7 26H46v26h7v25l-7 1v24h7v27h-7v-16l-1-9q-6-2-12-1h-9l-1 6v20h22l1 25h7v26h-7v25l7 1v25l-7 1v24h7v26h-7v25h7v25l-7 1v25h7v25h-7q1-12-1-24-11-2-22-1v25h23v13l5 1v25H26v-21q0-2-3-5l-1-13-22 1v-26l23-1q1-11-1-24H0v-26h23v-25H0v-26h23v-25H0v-26h23v-25H0v-26h16l6-1 1-8-1-16H0v-26h23v-25H0v-26h23v-26H0v-26h22l1-18-1-6q-2-2-5-2l-17 1v-26l23-1-1-24H0v-27q12 2 22-1l1-24h23l-1-26H23V26H0z"/><path fill="#fdfdfd" d="M23 0h23v25H23zM68 0h23v25H68z"/><path fill="#efefeb" d="M91 0h22v25H93l-2 3V0"/><path fill="#dcdcdc" d="M113 0h23v25h-23z"/><path fill="#efefef" d="M136 0h1v25h22l-23 1v25h-22V34l-1-9h23z"/><path fill="#fdfdfc" d="M137 0h22v25h-22z"/><path fill="#dbdbdb" d="M159 0h23v25h23V0h23v25h22V0h23v19q0 4 2 6l6 1 15-1v26h-23v13h-23V51h-22v14l-23 4V51h22V26h-22v25h-23V26h-23l1 25h22q1 13-1 26h-21q0 8-4 12-10 5-19 12V90l-1-12q-11-1-22-1-11 1-23-1V52q11-2 23-1h22V26l23-1z"/><path fill="#fdfdfd" d="M182 0h23v25h-23zM228 0h22v25h-22z"/><path fill="#ececec" d="M273 0h23v25h22l1-3v33q-3-3-7-4-8 0-16 2V25l-15 1-6-1q-2-2-2-6z"/><path fill="#fdfdfd" d="M296 0h23l-1 25h-22z"/><path fill="#dbdbdb" d="M319 0h23v25h22V0h23v25h23V0h23v25h21l1-8V0h23v26h22V0h24v25h22V0h23v25l22 1v25h-22v13h-23V51h23V26h-23v25h-22l-1 13h-23V53q-1-3-4-2h-18V26h-23v25h19l4 1v12h-23V51h-22v13h-23l-1-13h-22V26h-22l-1 25h23v13h-22l-1-13h-20l-2 3-1 10h-22V51h22V27l-22-1V0"/><path fill="#fdfdfd" d="M342 0h22v25h-22zM387 0h23v25h-23zM433 0h22v17l-1 8h-21z"/><path fill="#fdfdfb" d="M478 0h22v26h-22z"/><path fill="#fdfdfd" d="M524 0h22v25h-22z"/><path fill="#fefefe" d="M569 0h23v26h22v25h23v13h23V51h-23V26h23v25h22l1 13h22V52l23-1v13h46l19 1v2h12l14 2 11 4q5 0 10 4h1l5 1 18 8q12 7 23 15V77h23v25h-21l14 12 8 6v-17h22l-1 25-13 1q5 8 14 17v-17h23v24l-18 1 10 19q2 5 7 8v-20q0-4 2-6l4-1h17v21q0 3 3 5h-24q-2 2-1 6l5 19h17v26h-10l2 26h8v-26h23v25l23 1v25h-23v-25h-22q-1 13-1 25h-7v26h7l1 26h22v25h-23v-14q1-6-1-11h-6v25h7v26h-7v25h7l1-25h22v25h23v26h-23v26h-23v-26h-5q-3 2-2 4v21l7 1v24l-7 1v25h7v25h-7q-2 10 0 21v4l7 2v24h-7l1 13q3 14 0 27v22q2 13 0 25v27c2 7 0 15 2 23l16-1h7l1 4v21h-25l-1-24-1 16 2 17 1 15 24-1v24h-24c-2-9 0-17-2-25l-2 8-2 16 6 2q-2 10-1 22l-11 1-2 7-7 18h20v25h-25l-1-13-8 13 7 1q2 12 1 24h-25v26h-20l-9-1h1l12-11-2-8-13-39q-7-17-15-34a462 462 0 0 0-36-64q-11-17-24-33l-18-21q-13-13-28-24l4-4q8-5 14-12 11-9 19-19a223 223 0 0 0 53-112q6-56-7-110-2-11-6-22l-11-34h15q11-2 18-9 11-10 15-25 6-17 10-35 7-29 3-57-6-22-22-36l-21-13q-24-14-51-21-23-9-49-8-30 0-54 18l-9 6-6-2q-20-13-41-22a331 331 0 0 0-277 7q-17 9-33 17l-22-14-13-5q-23-8-46-4-36 5-67 21-22 8-39 24a66 66 0 0 0-20 36q-3 21 1 43 4 27 16 53 5 13 18 22 13 7 27 3a424 424 0 0 0-27 144q2 36 15 69 20 52 62 87l15 14-21 18q-27 27-48 58a489 489 0 0 0-66 148l18 15 16 11-1 11h-24l-1-26h-25q-1-13 1-26H77v-25h8l-7-12-2-1 1 13H51v25q13 0 25 1v25H54q-4 1-3 5v21h25v21q0 3-2 5l-23-1v-25H26v-26h25v-26H26v26H0v-26h26v-25H0v-25h25l1 25h25l1-25q9-1 18 1l-4-13-4-12-3-2h-8q1-12-1-22l-24-1v23H0v-22h16q5 1 9-2 1-11 1-23h25v-23H26v-25h25v17l1 8 1-17-2-16v-15H26v-25h25q-1 13 1 26 2-9 1-17l-2-17v-16H26v-23q-1-2-5-2H0v-25q12 1 22-2l1 1q3 3 3 5v21h25v-25l-5-1v-13H23v-25q11-1 22 1 2 12 1 24h7v-25h-7v-25l7-1v-25h-7v-25h7v-26h-7v-24l7-1v-25l-7-1v-25h7v-26h-7l-1-25H23v-20l1-6h9q6-1 12 1l1 9v16h7v-27h-7v-24l7-1v-25h-7v-26h10l7-26H46v-25l-23-1v-25l23-1v-21q-1-4-4-3l-19-1v-25h23v26h22l1 24 15 1q6-2 7-8v-17l15-1q4-3 8-7 9-10 20-17l3-3q9-7 19-12 4-5 4-12h21q2-13 1-26h-22l-1-25h23v25h23V26h22v25h-22v18l23-4V51h22v13h23V51h23v13h45l1-10 2-3h20l1 13h22V51h-23l1-25h22v25h22l1 13h23V51h22v13h23V52l-4-1h-19V26h23v25h18q3-1 4 2v11h23l1-13h22V26h23v25h-23v13h23V51h22V26l-22-1z"/><path fill="#dbdbdb" d="M592 0h22v25h23V0h23v25h22l1-25h22v25l23 1v20l1 5h15l1 1h6v12h-23V51l-23 1v12h-22l-1-13h-22V26h-23v25h23v13h-23V51h-23V26h-22z"/><path fill="#fdfdfd" d="M614 0h23v25h-23zM660 0h23l-1 25h-22z"/><path fill="#ebebeb" d="M705 0h23v25h23V0h22v25h-2l-2-3v4l-17-1-2 15v10l-6-1v2h-15l-1-5V26l-23-1z"/><path fill="#fdfdfd" d="M728 0h23v25h-23z"/><path fill="#dcdcdc" d="M773 0h23v25h-23z"/><path fill="#f7f8f3" d="M796 0h23v25h-22l-1-3z"/><path fill="#dcdcdc" d="M819 0h23v25h-23z"/><path fill="#ebebeb" d="M842 0h23v25l17 1h-18v26q-10-3-21 1-2-13-1-27-11-1-22 1l-1 3v-4h-22v-1h45z"/><path fill="#f7f7f7" d="M865 0h22v22q-1 4-5 4l-17-1z"/><path fill="#dadada" d="M887 0h24v25h22V0h23v20q-1 4 2 5h20V0h23v25l23 1v25h-23l1 26h22v26h-23v25h23v26h-23v25l-20 1q-3-2-3-5v-21h-17l-4 1q-3 2-2 6v20q-5-3-7-8l-10-19 18-1v-24h-23v17q-8-9-14-17l13-1 1-25h-22v17l-8-6-14-12h21V77h-23v24q-11-8-23-15V76l23 1 1-25h-24V26h18q4 0 5-4z"/><path fill="#fdfdfd" d="M911 0h22v25h-22zM956 0h22v25h-20q-3-1-2-5z"/><path fill="#fcfcfc" d="M1001 0h23v26l-23-1z"/><path fill="#e5e5e5" d="m769 22 2 3h26v2q-11-2-23-1v28l-6-3-17 1h-6l-1-1v-2l6 1V40l2-15 17 1z"/><path fill="#fdfdfd" d="M23 26v25h22l1 26H23l-1 24q-10 3-22 1V77h23V52q-11-2-23-1V26zM68 26l1 26h22v24l-3 1H68v26l16-1 7 1v25H68v-25l-22-1V77h22V55l-1-4H46V26z"/><path fill="#f7f7f5" d="M93 25h20l1 9v17q-12-1-23 1H69l22-1V28z"/><path fill="#fdfdfd" d="M257 26h16v25h-23q0-13 1-24zM432 26v25h-22V26zM685 26h20v25h-22V30q0-4 2-4M319 26l22 1v24h-22V26M501 26h23v25h-24z"/><path fill="#f8f7f7" d="M774 26q11-1 23 1v24q-12-1-23 1z"/><path fill="#dcdcdc" d="M797 26h22v25h23q1 13-2 26-5-4-10-4l-11-4V52l-18-1q-4-1-4 3l-1 11h-3l-19-1V52q11-2 23-1z"/><path fill="#f7f7f7" d="M820 27q11-2 22-1-1 14 1 27 10-3 21-1v25q-9-2-18 1l-5-1h-1q3-13 2-26h-23z"/><path fill="#fdfdfd" d="M888 26q11-2 22 1v24h-22l-1-16zM935 26h21v25h-23V30q0-3 2-4"/><path fill="#fefefe" d="M979 26h22v25h-23z"/><path fill="#dbdbdb" d="M0 51q12-1 23 1v25H0z"/><path fill="#fdfdfd" d="M137 51h22l1 26h-23z"/><path fill="#f3f3f3" d="M312 51q4 1 7 4v9h-23V53q8-2 16-2"/><path fill="#dbdbdb" d="M592 51q11-1 23 1l-1 12h-22z"/><path fill="#f6f6f6" d="m768 51 6 3v10h-23V52z"/><path fill="#f6f6f5" d="m801 51 18 1v17l-14-2h-12v-2h3l1-11q1-4 4-3"/><path fill="#f0f0f0" d="m888 52-1 25-23-1V52z"/><path fill="#fefefe" d="M911 51h22v26h-22z"/><path fill="#fdfdfd" d="M956 51h22v26h-22v25h-23V77h22l1-14zM1024 51v26h-22l-1-26z"/><path fill="#f3f3f0" d="M91 76q11 2 23 1 11 0 22 1l1 12v11l-3 3-8-2H91zh-3z"/><path fill="#e9e9e8" d="M864 77v9l-18-8q9-3 18-1"/><path fill="#fefefe" d="M1001 77v25h-22V77z"/><path fill="#fdfdfd" d="M978 103v25h-22v-25zM1024 103v25h-23v-25zM0 129h22l1 24-23 1zM979 129h22v25h-17l-5-1-1-13z"/><path fill="#0c1630" d="M504 143a331 331 0 0 1 181 48l6 2 9-6q24-18 54-18 26-1 49 8a288 288 0 0 1 72 34q16 14 22 36 5 28-3 57-4 18-10 35-5 15-15 25-7 8-18 9h-15l11 34q4 11 6 22 13 54 7 110l-12 48q-15 35-41 64-8 10-19 19-6 7-14 12l-2-2q10-6 16-16l15-12-5-4-11 10q-9 10-21 16l15-14 13-13 10-9q7-8 12-18 5-7 9-14l8-16 5-12q2-6 3-13l4-13q4-17 5-35v-21q-1-19-3-36l-3-13q-1-10-4-18-2-12-6-21-2-11-6-21l-10-23q-5-6-11-10-8-4-15-12l6-6q12 11 27 18 8 7 18 7 10 1 18-5 8-7 10-18 1-3-1-5 7-19 11-40 4-20 2-41-4-16-17-28-16-12-33-19-29-14-61-20-16-2-32 0-22 6-40 20-3 4-8 7-9-4-16-10-19-11-39-19a313 313 0 0 0-216-12q-39 11-73 32-7 5-16 9l-12-11a86 86 0 0 0-50-17q-28 0-54 11l-27 11q-17 8-32 19l-2-2 6-5-2-2-8-2-1 3-3-2q17-16 39-24 31-17 67-21 23-4 46 4l13 5 22 14q16-9 33-17 65-32 137-33"/><path fill="#dbdbdb" d="M46 154h22v21q1 4 4 6l-4 6v-7H46v-26"/><path fill="#fcfcfc" d="M1001 154h23v25l-23 1v25h23v26l-23-1v-25h-23v-25h3l20-1z"/><path fill="#f6c3c1" d="M532 158a337 337 0 0 1 105 25q20 8 39 19 7 6 16 10 5-3 8-7a87 87 0 0 1 72-20q32 5 61 20 17 7 33 19 13 12 17 28 2 21-2 41l-15 49-2-1 7-17q3-12 5-25 4-7 4-14v-16q0-12-8-22l-16-15-28-14-24-10-19-6-24-3q-10 0-21 2-23 6-39 25l-7 5-9-3a272 272 0 0 0-67-34q-13-5-28-9-30-7-60-9h-38a291 291 0 0 0-83 17l-31 13-35 19q-4 4-10 6-4 0-7-4l-21-18q-15-10-34-10-20-1-39 5l-25 9-16 8q-19 8-35 22-6 9-10 18-3 11-1 22 3 9 4 18l3 16 5 13 4 11-3-1q-10-22-14-45c-3-18-6-36 1-53q5-9 12-17 15-11 32-19l27-11q26-11 54-11 10 0 20 3 16 4 30 14l12 11q9-4 16-9a315 315 0 0 1 184-45"/><path fill="#f69c9a" d="M492 176h38q30 2 60 9 15 4 28 9a289 289 0 0 1 67 34l9 3 7-5q16-18 39-25 10-2 21-2l24 3 19 6 24 10 28 14 16 15q8 10 8 22v16q0 7-4 14-2 12-5 25l-7 17h-1l-14-1q-12-4-22-12l-20-16-15-20-13-17-23-41q-4-10-14-15l-3-1-3 1 3-2-6 1q-3 3-3 8 0 11 3 20l7 24 7 17q3 9 8 16 3 9 10 17c6 8 9 15 17 21l14 15 1-5 12 9q5 3 7 7 7 14 11 28 16 45 20 93a254 254 0 0 1-11 86 208 208 0 0 1-65 91q-40 33-88 51-30 12-61 18-36 8-72 10l-16 1a558 558 0 0 1-181-25 336 336 0 0 1-113-68l-16-17q-10-12-18-25t-13-28q-10-21-13-46l4 7q-3-26-2-53l3-35q1-9 4-18l3-15q4-8 6-18l7-19 7-17q6-7 14-11l9-9 8-7 6-7 8-9 7-12 7-11q5-7 8-15 1-6 3-11 6-14 9-29 4-10 4-21 0-5-3-8h-6q-10 3-15 11-8 10-12 22l-14 23q-8 15-20 28-10 13-23 23-10 9-22 14-10 3-19 2l-4-11-5-13-3-16q-1-9-4-18-2-11 1-22 4-9 10-18 16-14 35-22l16-8 25-9q19-5 39-5 19 0 34 10l21 18q3 4 7 4 6-2 10-6l35-19 31-13a278 278 0 0 1 83-17"/><path fill="#fdfdfd" d="M17 179q3 0 5 2l1 6-1 18H0v-25z"/><path fill="#dbdbdb" d="M1024 179v26h-23v-25z"/><path fill="#dadada" d="M957 180h21v25h23v25l23 1v26l-23-1v-25h-23v26h-8l-2-26h10v-26h-17l-5-19q-1-4 1-6"/><path fill="#fdfdfd" d="M23 205h23l-1 25H23z"/><path fill="#091530" d="m151 214 8 2 2 2-6 5 2 2q-7 8-12 17h-3l-3 15-1 13 1 14q1 10 4 20 2 15 8 28l4 12q4 8 9 12 10 7 21 4 9-1 17-5 11-8 22-17l11-10q5-2 12-1l-11 12-16 14q-7 4-11 9-6 8-9 17-4 8-6 18l-5 13-7 27-3 16q-1 10-3 20l-1 18 1 39q1 16 6 30l7 24 9 18 5 11 9 13 10 13 8 8q13 15 28 26l16 12 17 11 14 8q19 9 40 17 7 4 15 6l10 3q22 5 46 11l26 4 29 3q30 2 61 1l29-2 15-1 21-3 24-5 17-3 18-6 13-3 12-5 16-7 16-7 14-8q8-2 14-8l9-6q8-5 16-11 12-6 21-16l11-10 5 4-15 12q-6 10-16 16l2 2-4 4q15 11 28 24l18 21q13 16 24 33l16 25q12 19 20 39 8 17 15 34l13 39 2 8-12 11-11-33a437 437 0 0 0-28-68l-17-32-11-16q-15-21-32-41l-18-18-4-1 1-2-12-10q-3-5-8-2l-8 5-4 4q-1 6 1 13l3 17 8 43 2 12q-1 4-4 8-9 5-19 8l-15 7-7 4-11 4q5 4 8 10l14 20q6 6 8 13-1 7-6 12l-7 11-5 4-7 10-7 9q-3 7-10 12l-12 15-6 9-7 6 7 2h-11l2 4-4 1h-16l-1-2 17-20 14-17 14-18 6-8 22-29-15-24-14-19-3-7q6-7 15-9l30-13q6-4 14-5c0-15-6-29-7-43q-2-11-5-22 1-6-4-10-4 3-9 5l-17 8-14 5q-2 2-3 5 0 6-3 10l-6 13-7 17-11 27-13 27-15 31-23 47-20 38-5 11q-2 2-6 2h-14l4-6-2-7-5-20-12-40-7-24-4-14h-39l-6 21-8 29-12 43-3 11 2 7h-17l-6-12-7-13-13-26-14-27-18-36-9-21-18-39-10-26-7-4h5q-5-8-7-17l-3-8q-6-1-13-3l-17-8-13-5-2 10-4 17-4 24q-2 8-3 17-1 3 1 5 4 3 9 4l31 14 16 7q2 4 0 7l-31 46 14 20 17 22 18 21 13 16q7 6 11 14h-19q-4-2-10-3h6l1-2-6-5-5-8-8-8-5-10h-4v-3h-4q-2-7-6-12t-8-8l-10-15-10-14-2-5 2-5 20-30 8-8q-5-4-11-5-5-2-11-6-4 0-8-3-6-3-13-6l-10-6c-4-3-2-10-2-14l6-29 3-18 4-22v-11l-3 3-1-5-8-5q-5-2-8 1l-14 14-11 10q-18 17-32 38l-23 35q-12 21-22 42l-11 25-13 41q-4 9-5 19l-13-11q5-22 13-44a489 489 0 0 1 101-162l21-18-15-14a223 223 0 0 1-77-156q0-36 6-72 8-36 21-72-14 4-27-3-13-9-18-22a201 201 0 0 1-17-96q3-22 20-36l3 2z"/><path fill="#e2abb2" d="M292 218q3 3 3 8 0 11-4 21-3 15-9 29-2 5-3 11-3 8-8 15l-7 11-7 12-8 9-6 7-8 7-9 9q-8 4-14 11l-7 17-7 19q-2 10-6 18l-3 15q-3 9-4 18l-3 35q-1 27 2 53l-4-7q-7-49 5-98 5-22 13-44l9-25q1-4 4-6 29-18 47-46 12-16 19-36a174 174 0 0 0 15-55q0-4-3-8h-3z"/><path fill="#e0a5b0" d="m739 217-3 2q-3 1-3 4-1 11 3 21l8 29 14 30 11 18q13 16 28 30l-1 5-14-15c-8-6-11-13-17-21q-6-8-10-17-6-7-8-16l-7-17-7-24q-3-9-3-20 0-5 3-8z"/><path fill="#d87276" d="M286 218h3l-4 2q-2 2-3 5l-1-3-4 8-6 20q-3 6-6 11l-3 12-8 16q-5 7-8 15l-12 14-7 8q-9 11-21 19l-14 7q-10 5-20 2-7-6-11-13 9 1 19-2 12-5 22-14 13-10 23-23 11-13 20-28l14-23q4-12 12-22 5-9 15-11"/><path fill="#c2808f" d="M742 219q7 17 13 35l14 33 9 16 8 10q5 8 12 14l11 10q9 8 21 14 10 7 22 3 7-4 11-13h1l2 1q-3 8-10 14-6 3-14 2-10-2-19-8-12-7-23-17-31-32-46-75l-6-17q-3-11-9-23z"/><path fill="#151028" d="M289 218q3 4 3 8l-6 27q-3 15-9 28a178 178 0 0 1-66 82q-3 2-4 6l-9 25q-8 22-13 44-11 49-5 98a180 180 0 0 0 26 74q8 13 18 25l16 17q16 15 33 28 38 25 80 40a470 470 0 0 0 181 25l16-1a490 490 0 0 0 133-28q48-18 88-51a258 258 0 0 0 49-57 208 208 0 0 0 27-120q-4-48-20-93-4-14-11-28-2-4-7-7l-12-9q-16-13-28-30l-11-18-14-30-8-29q-4-10-3-21 0-3 3-4l3-1q6 12 9 23l6 17q15 43 46 75 11 10 23 17 9 6 19 8 8 1 14-2 7-6 10-14l4-9q2 3 1 5-2 10-10 18-8 6-18 5-10 0-18-7-15-7-27-18l-6 6q7 8 15 12 6 4 11 10l10 23q4 10 6 21 4 9 6 21 3 8 4 18l3 13q2 17 3 36v21q-1 18-5 35l-4 13q-1 7-3 13l-5 12-8 16q-4 7-9 14-5 10-12 18l-10 9-13 13-15 14q-8 6-16 11l-9 6q-6 5-14 8l-14 8-16 7-16 7-12 5-13 3-18 6-17 3-24 5-21 3-15 1-29 2q-31 1-61-1l-29-3-26-4q-24-6-46-11l-10-3q-8-2-15-6-21-8-40-17l-14-8-17-11-16-12q-15-12-28-26l-8-8-10-13-9-13-5-11-9-18-7-24q-5-14-6-30l-1-39 1-18q1-10 3-20l3-16 7-27 5-13q2-10 6-18 3-9 9-17 4-5 11-9l16-14 11-12q-7-1-12 1l-11 10q-11 9-22 17-8 4-17 5-11 3-21-4-5-4-9-12l-4-12q-5-13-8-28-3-10-4-20l-1-14 1-13 3-15h3c-7 17-4 35-1 53q4 23 14 45 3 7 7 12 7 7 17 6 12-1 22-9 12-8 23-18 27-28 40-65 9-20 15-41 1-3 3-5z"/><path fill="#d87276" d="M742 219q10 5 14 15l23 41 13 17 15 20 20 16q10 8 22 12l14 1q-4 9-11 13-12 4-22-3-12-6-21-14l-11-10q-7-6-12-14l-8-10-9-16-14-33q-6-17-13-35"/><path fill="#c1808e" d="m281 222 1 3q-6 21-15 41-13 37-40 65-11 10-23 18-10 7-22 9-10 2-17-6-4-5-7-12l3 1q4 7 11 13 10 4 20-2l14-7q12-8 21-19l7-8 12-14q3-8 8-15l8-16 3-12q3-5 6-11l6-20z"/><path fill="#fefefe" d="M23 231v26H0v-26z"/><path fill="#fdfdfd" d="M23 257h14l8 1v24H23v-25"/><path fill="#dbdbdb" d="M979 257h22v25h23v26h-22q-2 12-1 26h23v25h-23v26h23v25h-23v-25h-22l-1 25h-7v-25h7v-26h-7v-25h6q2 5 1 11v14h23v-25h-22l-1-26h-7v-26h7q0-12 1-25"/><path fill="#fcfcfc" d="M23 283v25H0v-25z"/><path fill="#fdfdfd" d="m984 282 16 1 1 1v24l-23-1 1-22q1-3 5-3"/><path fill="#3b2324" d="M372 287q14-1 27 6 10 7 11 18 0 7-4 10-5 4-12 3-12-2-23-3-35-2-65 16l-13 8q-5 2-8 0-1-7 3-12c19-27 51-45 84-46"/><path fill="#3c2424" d="M650 287q23 1 44 10 22 9 38 29 7 5 9 13 2 4-2 7-3 1-7-1l-15-10q-29-16-63-14l-21 3q-7 2-13-2-4-5-4-12 2-10 10-16 10-6 24-7"/><path fill="#fdfdfd" d="M1002 308h22v26h-23q-1-14 1-26M22 334l1 16-1 8-6 1H0v-25z"/><path fill="#e3abb1" d="M337 350q22-2 42 7 9 5 16 12 8 7 12 16l7 19q3 13 1 25 0 8-3 16l-7 15-14 14q-11 8-21 12-11 4-23 4-25 1-45-13-9-8-15-18-5-5-7-11l-3-12q-3-11-2-23 1-11 5-20t9-16 10-11 10-6q6-4 11-6 8-4 17-4"/><path fill="#e2a9b0" d="M692 350q12 2 22 8 12 6 20 16 5 5 8 12l4 10q5 12 4 25v15q-2 8-6 15l-6 12q-12 14-27 21-14 8-29 6-15 0-28-4-9-4-16-9l-11-10q-6-6-10-14a79 79 0 0 1-7-43l1-11 5-10q2-7 8-12 6-9 16-16 8-6 18-8 17-4 34-3"/><path fill="#1c091b" d="M334 354a67 67 0 0 1 63 23 70 70 0 0 1 14 60 68 68 0 0 1-58 50q-15 2-29-3-12-3-21-11-11-8-17-20a69 69 0 0 1-4-59c9-21 29-37 52-40"/><path fill="#1c091c" d="M670 353q16-2 30 3 16 5 28 17 16 16 19 38 2 17-4 34-10 24-34 37-18 8-38 5a69 69 0 0 1-55-43q-4-15-4-30 2-23 18-39 16-19 40-22"/><path fill="#091731" d="m686 356 20 4 16 10q10 9 15 20a74 74 0 0 1 8 37l-4 13q-2 9-7 16-5 9-15 15l-10 8-12 3q-9 2-17 3-8-1-17-3l-10-2-9-6-9-7-6-8-6-6-3-8-3-9q-5-21 3-40 3-9 8-15a64 64 0 0 1 35-23q12-3 23-2M339 356q13 0 24 2 16 4 28 16 7 7 12 15 7 13 7 27 2 13-3 24-4 13-12 22-6 7-16 13-5 4-12 7l-16 3q-13 0-26-3l-12-6q-6-2-12-8l-11-13-6-12q-4-14-4-29 2-14 9-27 5-8 13-15 7-7 16-11 11-5 21-5"/><path fill="#dc7276" d="M800 358q8 3 12 8 3 2 4 6l8 21 7 21 7 29 5 30 2 26v18q-1 17-5 32l-7 25q-2 10-8 18-3 9-10 17l-5 11-22 26-13 12-14 11q-17 14-36 25-5 4-11 6l-21 10q-16 7-33 12l-23 7-18 4-31 5-24 3-19 1q-20 2-41 1-27 0-52-3l-19-2-17-3q-20-3-40-10l-25-7-16-7q-9-3-17-8-8-3-16-8t-17-9l-18-13q-14-11-27-24l-11-12-9-11c-5-5-6-11-11-16l-8-14-8-20q-5-10-5-20 5 9 9 19 14 22 33 42l17 16q18 14 37 27 21 12 43 21a391 391 0 0 0 88 26 512 512 0 0 0 232-15q17-5 34-14 38-17 68-44l21-19a198 198 0 0 0 54-156q-3-42-17-81z"/><path fill="#fdfdfd" d="M23 359h23v26H23zM1024 359v26h-23v-26z"/><path fill="#fdfefc" d="M363 379q8-2 15 1c8 4 12 15 9 23q-4 14-19 14c-9 0-16-8-17-16-2-9 4-19 12-22"/><path fill="#fefefc" d="M649 379h11q15 5 14 20c0 10-10 19-20 18q-13-2-17-15c-2-9 4-20 12-23"/><path fill="#fdfdfd" d="M0 385h23v25H0z"/><path fill="#fcfcfc" d="M46 410v26H23v-26z"/><path fill="#dda7b3" d="M507 410q17-1 33 2 13 4 28 10 12 6 22 16 10 8 16 18l7 14q6 17 7 33-1 17-6 32c-2 7-8 11-10 18q8 0 14-5l14-5q4-4 4-9l5 7-18 9q-18 8-37 13 11-8 19-19 11-15 12-33 2-40-26-69a112 112 0 0 0-90-30l-21 4 6-4q10-3 21-2"/><path fill="#dbdbdb" d="M979 411h22v25h-23v-17z"/><path fill="#0e132e" d="M501 412q15-1 30 1 14 3 26 8 19 7 34 21 28 29 26 69-1 18-12 33-8 11-19 19a220 220 0 0 0 55-22l-5-7 2-4q6-3 11 2 11 6 17 16l-1 6h-7l-6-3-13 26a135 135 0 0 1-114 68q-29 2-58-5-17-5-32-14-17-9-30-24-13-12-21-29l-11-21-4 1h-8q2-13 14-18 4-3 10-3l1 6-1 3q17 10 35 16 9 4 20 6-11-7-19-17-13-18-14-41 0-32 22-57a106 106 0 0 1 51-32z"/><path fill="#e5bcc3" d="M525 425q30 4 53 22 16 14 22 32-6-8-12-18l-11-10q-10-10-23-14l-18-7q-15-2-30-2-18 0-34 8l-15 7-15 14-11 13-5 12q-4 8-6 16l2-10q3-15 12-26 13-19 35-28 10-6 21-8 18-3 35-1"/><path fill="#e0a7af" d="m446 427 6 1q-13 8-23 20a83 83 0 0 0-22 57q1 23 14 41 8 10 19 17-11-2-20-6-18-6-35-16l1-3q4-3 2-7-4-5-9-1-10 6-18 15-4 4-4 10l3 2q5-1 9-4l4-1 11 21a147 147 0 0 0 51 53q15 9 32 14 29 7 58 5 33-3 63-17 32-19 51-51l13-26 6 3 4 3-9 1q-5 7-8 15l-13 20q-3 5-9 9l-9 12-11 7-9 8-12 5-18 6-14 5q-11 3-21 2l-23 1-23-2-16-4q-8-2-17-5l-14-7-9-4-10-8-8-5q-5-7-11-13-4-2-6-5l-8-15q-2-5-5-9-3-5-5-11-2-2-5-3-7 3-13 0-3-3-1-7 4-9 12-15 6-7 15-8 5-1 8 4l1 10 9 5 15 6q3 1 6-1l-8-13q-5-8-6-18-3-12-2-24l2-15q2-8 6-15l5-9q3-7 8-12t11-9z"/><path fill="#f6b2b0" d="M506 428q15-1 30 2l18 7q13 4 23 14l11 10q6 10 12 18l4 14v4q-2-11-8-20-7-10-16-18-27-20-59-23-20-1-40 4-17 5-31 16-14 8-21 23l-3 3 5-12 11-13 15-14 15-7q15-8 34-8"/><path fill="#fdfdfc" d="M0 436h23v25H0z"/><path fill="#f57d7e" d="M521 436q33 2 59 23 9 8 16 18 6 9 8 20l-3 17-9 11q-9 10-19 16-16 9-35 12a141 141 0 0 1-92-15l-11-11-11-13v-1l-1-15q2-10 6-19 7-14 21-23 14-11 31-16 20-5 40-4"/><path fill="#dbdbda" d="M973 436h5v26h23v-26h23v25l-23 1v25h23v25h-23v26h23v25h-23v25h23v14h-24l1-13h-23v13l21 1-1 24h26v25h-25l-1-25h-25v25h26l-1 24h26v25h-26v-25h-25v25h25v23h26v25h-26v23h26v25l-26-1v23h26v26l-25-1-1-24h-25v19q-1 4 3 5l22 1v25h-25v25l-25 1q-1 12 1 25v3l-2-1-8-1h-17v25h-51l1-12-1 1 15-11 7-5 9 1h20v-26h25q1-12-1-24l-7-1 8-13 1 13h25v-25h-20l7-18 2-7 11-1q-1-12 1-22l-6-2 4-24c2 8 0 16 2 25h24v-24l-24 1-1-15-2-17 1-16 1 24h25v-21l-1-4h-7l-16 1c-2-8 0-16-2-23v-27q2-13 0-25v-22q3-13 0-27l-1-13h7v-24l-7-2v-23l6-1 1 7v18h23v-25l-23-1v-25h-7v-25l7-1v-24l-7-1v-21q0-2 2-4"/><path fill="#fcfcfb" d="M46 462v25H23v-26z"/><path fill="#f8f8f6" d="M1024 461v26h-23v-25z"/><path fill="#df9096" d="M478 467q7 2 11 9 4 13 1 26-1 8-6 15l-8 8q-9 6-18-1-6-6-7-13v-14l5-13q2-6 6-11 7-7 16-6"/><path fill="#e28f96" d="M549 467q9-1 15 7l5 10q3 6 4 12v12q1 6-3 11-4 9-13 9-10-1-17-10-3-4-4-9-3-9-4-18 1-11 8-21 4-4 9-3"/><path fill="#2c0719" d="M472 469q6-2 10 3 6 5 7 11 2 19-8 35-5 8-14 8-9-2-12-11-4-19 5-34 5-8 12-12"/><path fill="#2b0414" d="M546 469q12 0 17 9 10 17 7 36-1 8-10 11-5 2-11-2-11-10-13-25-2-10 2-20 2-6 8-9"/><path fill="#111833" d="M473 473h8q5 4 5 10 1 13-2 25-3 10-14 14-4 2-9-1-4-6-5-14 0-12 5-24 4-7 12-10"/><path fill="#101934" d="M547 472q10 1 15 9 8 14 6 31-1 6-7 10h-6q-10-3-13-14-6-13-3-27z"/><path fill="#de989f" d="M429 479q-4 9-6 19l1 15-4-10v-5q2-8 6-16z"/><path fill="#f9f9f8" d="M0 487h23v25H0z"/><path fill="#f9f9f7" d="M1001 487v25h-23l1-25z"/><path fill="#f47a7c" d="M272 489q14-1 26 1 19 2 33 14 7 8 6 17-1 11-9 17-12 7-25 10-12 2-24 1-18 0-34-9-8-6-12-14-3-10 3-20 7-8 16-11 10-5 20-6"/><path fill="#f4797b" d="M727 489h24q17 2 31 12 11 7 11 19-1 10-9 16-9 7-22 10a87 87 0 0 1-51-1q-11-5-20-14c-6-7-5-18 1-24q14-16 35-18"/><path fill="#bc7884" d="M604 493v21q-2 16-14 28-7 8-15 12-12 9-27 12-35 9-70 0-17-4-29-13-13-7-21-19-8-16-8-31l4 10v1q2 10 8 19 8 13 21 21 12 7 24 10 20 4 39 4 16-1 31-5 12-2 23-8 9-6 17-14 12-11 14-27z"/><path fill="#fbfcf9" d="M23 512h23v25l-23 1z"/><path fill="#efefef" d="M1024 512v26h-23v-26z"/><path fill="#d56568" d="m424 514 11 13 11 11a123 123 0 0 0 59 17q17 1 33-2a94 94 0 0 0 54-28l9-11q-2 16-14 27-8 8-17 14-11 5-23 8-15 4-31 5-19 0-39-4-12-3-24-10-13-8-21-21-6-9-8-19"/><path fill="#230617" d="M388 531q2 4-2 7l-1-6q-6 0-10 3-11 5-14 18h8q-4 4-9 4l-3-2q0-6 4-10 8-9 18-15 5-4 9 1"/><path fill="#f8f8f8" d="m978 537 23 1v25h-23v-18l-1-7-6 1v19q-2-10 0-21z"/><path fill="#f9faf6" d="M22 538q2 13 1 24l-23 1v-25h22"/><path fill="#360717" d="M666 548q3 3 1 8l-5 1-4-3h7z"/><path fill="#f1f1f1" d="M1024 563v25h-23v-25z"/><path fill="#c0cbd3" d="M399 562q17 8 33 13a299 299 0 0 0 194-12q-4 10-12 17-5 4-12 7-3-2-7-2-8 2-17 3-11 4-23 4-45 7-91 0l-32-7q-5-1-9 2-9-3-16-10-5-6-8-15"/><path fill="#fdfefd" d="m432 585 32 7q46 7 91 0 12 0 23-4 9-1 17-3 4 0 7 2-11 5-23 9l-15 5 7 2q18 0 36-6-20 22-50 29-30 9-64 5-19-2-39-10-21-8-35-23l15 3q12 4 26 1l-15-6q-11-4-22-9 4-3 9-2"/><path fill="#f5f5f5" d="M22 588v12q-10 3-22 2v-13z"/><path fill="#fcfcfc" d="m1001 589-1 13h24v25h-26l1-24-21-1v-13z"/><path fill="#dadada" d="M0 627h21q4-1 5 2v23h25v16l2 17q1 9-1 17-2-13-1-26H26v25h25v15l2 16-1 17-1-8v-17H26v25h25v23H26q0 12-1 23-4 2-9 2H0v-25h25v-23H0v-25h25v-23H0v-25h25v-24H0z"/><path fill="#dedede" d="M53 627q1 12-1 26-2-6-1-12l-1-13z"/><path fill="#fdfdfc" d="M973 627h25l1 25h25v24h-26l1-24h-26z"/><path fill="#fefefe" d="M0 652h25v24H0z"/><path fill="#d97274" d="m479 658 10 2q21 4 41 1 9-3 20-2l-3 6q-5 5-11 6-25 9-48 0-8-3-13-10z"/><path fill="#fcfcfc" d="M973 676h25v25h26v23h-26v-23h-25z"/><path fill="#12213b" d="m271 696 8 5 1 5 3-3v11l-4 22v-7l-19-11-11-7 14-14q3-3 8-1M754 697q5-3 8 2l12 10-1 2 4 1q-6 1-9 4-10 7-22 13v7l-3-17q-2-6-1-13l4-4z"/><path fill="#fefefe" d="M0 701h25v23H0z"/><path fill="#324975" d="m249 711 11 7q-8 6-16 15l-14 16q-12 11-20 25-16 21-28 43-8 15-15 31l-16 37-7 22q-2 9-7 18l-5-4q1-10 5-19l13-41 11-25q10-21 22-42l23-35a293 293 0 0 1 43-48"/><path fill="#334973" d="m777 712 18 18q17 20 32 41l11 16 17 32 14 31q9 18 14 37l11 33h-1l-7 5-5-16q-7-24-17-47l-17-37q-5-8-9-17l-20-29-22-28q-14-17-30-33l2-2q3-3 9-4"/><path fill="#11213a" d="M724 714q5 4 4 10 3 11 5 22l-4-9q-5 4-11 6-8 1-14 6-15 6-32 11l6-13q3-4 3-10 1-3 3-5l14-5 17-8q5-2 9-5"/><path fill="#12213a" d="m299 715 13 5 17 8q6 2 13 3l3 8q2 9 7 17h-5l7 4q-16-3-30-10l-29-11-2 3 4-17z"/><path fill="#192c4c" d="m768 716-2 2q16 16 30 33l22 28 20 29q4 9 9 17l17 37q10 23 17 47l5 16-15 11-22 10-6 2-18 6h-11l-2-13-5-24-2 3q0-8-2-17l-8-23q-4-12-9-25l-5-7q-4-3-7 0v13l-1 10-2 34-1 21-4 33h9l7 1H657l4-1h10l1-3 6-5 6-10 14-15 10-13q10-10 17-24 2-6-1-12 5-4 6-12-2-7-8-13l-14-20q6-8 16-9l13-7q7-2 13-7 0-5 2-10 3-4 4-8l-2-12-8-43v-7q12-6 22-13M260 718l19 11v7l-3 18-6 29c0 4-2 11 2 14l2 4q-1 5 2 9l14 7 12 7q8 2 15 7l-20 30-2 5 2 5 2 6v13l9 11 12 17 7 7 6 8 7 9 6 7 6 5q2 2 3 5h30q-4-8-11-14l-13-16-18-21-17-22-14-20 31-46q2-3 0-7l-16-7-31-14q-5-1-9-4-2-2-1-5 1-9 3-17l4-24 2-3 29 11q14 7 30 10l10 26 18 39 9 21 18 36 14 27 13 26 7 13 6 12H235l12-1h11l-1-16-2-22-2-16-1-20-1-25v-11l-1-4q-5-1-7 3-6 10-9 22l-8 21-7 26-6 24q0 9-5 15l-29-8-5-2-37-21q5-9 7-18l7-22 16-37q7-16 15-31 13-22 28-43 8-14 20-25l14-16q8-9 16-15"/><path fill="#192c4c" d="m729 737 4 9c1 14 7 28 7 43q-8 1-14 5l-30 13q-9 2-15 9l3 7 14 19 15 24-22 29-6 8-14 18-14 17-17 20 1 2h-69q4 1 6-2l5-11 20-38a692 692 0 0 0 38-78l13-27 11-27 7-17q17-5 32-11 6-4 14-6 6-2 11-6"/><path fill="#c1cad3" d="m361 739 28 8 48 9 46 5-18 18-12 1a626 626 0 0 1-71-12q-5-2-8-1l-1 1q-7-14-12-29"/><path fill="#c0cad3" d="m664 739-11 28q-9 0-17 3l-57 9-17 3-19-21q15-2 32-3 45-6 89-19"/><path fill="#fdfdfd" d="M0 749h25v23H0z"/><path fill="#fbfcfb" d="M1024 749v23h-26v-23z"/><path fill="#144393" d="M522 762q4 2 6 5l12 14-2 1-53-1q5-7 12-13l6-6 11-1z"/><path fill="#fdfefd" d="M374 767q3-1 8 1a350 350 0 0 0 83 11l-25 29-15 19-11-10-15-14-17-16q-6-9-9-19z"/><path fill="#fdfdfd" d="m653 767-7 16-13 14q-16 16-33 30-17-23-38-45l17-3 57-9q9-3 17-3"/><path fill="#dbdbd9" d="M52 771q3 3 2 6l2 20-5-1q-1-13 1-25"/><path fill="#4090e8" d="m485 781 11 1 19 14 27 20 10-17q1-3-1-6l-13-11 2-1q9 7 14 15l-5 12-9 15-6 11q-9 1-18-2-13-11-27-20l-12-8-3-2-3-6z"/><path fill="#1859bb" d="M496 782h42l13 11q2 3 1 6l-10 17-27-20z"/><path fill="#dadada" d="m26 796 24 1q2 10 1 22h8l3 2 4 12 4 13q-9-2-18-1l-1 25H26l-1-25H0v-26h26z"/><path fill="#fbfbfb" d="M1024 797v22h-26v-23z"/><path fill="#101f38" d="m272 797 10 6q7 3 13 6 4 3 8 3 6 4 11 6 6 1 11 5l-8 8q-7-5-15-7l-12-7-14-7q-3-4-2-9z"/><path fill="#0f2039" d="M752 799q-2 5-2 10-6 5-13 7l-13 7q-9 1-16 9-3-6-8-10l11-4 7-4 15-7q9-3 19-8"/><path fill="#3463b1" d="m474 802 3 2 14 23q2 4 6 5h19q9 3 18 2l-42 1-14-23z"/><path fill="#195cb9" d="m477 804 12 8q14 9 27 20h-19q-4-1-6-5z"/><path fill="#c1cad3" d="m565 808 25 31q3 4 9 6 8-3 14-9l15-13-10 22-4 7v-3q-7 7-15 11-6-1-10-5l-24-25-6 8-10 18-2-9v-4l7-13z"/><path fill="#bfcbd6" d="m460 808 14 27 5 9q-1 7-4 13-1-6-4-10-5-9-11-16l-13 12-13 14q-3 4-8 3c-6-2-11-9-16-13v2l-12-25 17 15q6 4 12 6 5-1 8-6l15-19z"/><path fill="#fdfdfd" d="m34 819 16 1 1 8v16H26v-24z"/><path fill="#fbfbfa" d="m998 820 1 24 25 1v25h-26v25h26v26h-25q-2 12-1 26h26v26h-26v25h-25v-25h25v-22q1-4-2-4h-23v26h-25v-26h-22q-3-1-4 2 0 12-1 24h-50v25h-26v-25h21q3 1 5-2v-13l-1-11q-10 1-21-1l22-10 1-1-1 12h51v-25l25 1 1 24h23q2-2 2-4v-22h25v-26h-25v26h-24q-2-12-1-25l25-1v-25h25v-25l-22-1q-4-1-3-5v-19z"/><path fill="#fefefe" d="M460 831q6 7 11 16 4 4 4 10l-9 34-13 44-15-29-16-32-12-25v-2c5 4 10 11 16 13q5 1 8-3l13-14z"/><path fill="#fefefd" d="m565 830 24 25q4 4 10 5 8-4 15-11v3l-19 38-23 45-23-79 10-18z"/><path fill="#11203a" d="m250 845 1 4q-3-3-6-1-3 4-3 9-3 10-4 21l-2 23-2 22-1 24-1 7-4 5q-10 0-20-3 5-6 5-15l6-24 7-26 8-21q3-12 9-22 2-4 7-3"/><path fill="#091430" d="m781 848 4 21q2 8 2 16l1 14q1 13 3 25c-1 10 2 19 1 29q1 4 3 6h-2l-11 1-7-1q3-1 3-3v-24l-2-23v-18l-2-17v-26q4-3 7 0"/><path fill="#081530" d="M251 849v11l-2 33-1 18v17l-2 20 1 11-12 1-6-1h-1l4-5 1-7 1-24 2-22 2-23q1-10 4-21 0-5 3-9 3-2 6 1"/><path fill="#12213b" d="m781 848 5 7q5 13 9 25l8 23q3 9 2 17l2-3 5 24 2 13h11l-5 1-25 4q-2-2-3-6c1-10-2-19-1-29q-1-12-3-25l-1-14q0-8-2-16z"/><path fill="#2e529e" d="M493 849h39l4 14-3-2-4-8-12-1h-18q-3 0-4 2-2 4-3 9l-4 13q-2 10-3 19l-6 4 8-29z"/><path fill="#1a57b9" d="M499 852h18l12 1 4 8q-23 18-48 34 1-9 3-19l4-13q1-5 3-9 1-2 4-2"/><path fill="#d9d9d9" d="m76 857 2 1 7 12h-8v25h26q-2 13-1 26h25l1 26h24l1-11 21 10q-10 2-21 1v24q-1 2-4 2h-21v-26h-26v-25H77v25h25v26H77l-1 25h26v-25h25v25h-25v26H77v-25l-26-1v-25H26l-1 25H0v-25h25v-26H0v-26h26v-26h25v26H26v26h25v25l23 1q3-2 2-5v-21H51v-21q-1-4 3-5h22v-25q-12-1-25-1v-25h26z"/><path fill="#101f3a" d="m251 860 1 25 1 20 2 16 2 22 1 16h-11l-1-11 2-20v-17l1-18z"/><path fill="#4190e5" d="m533 861 3 2 7 24q-12 10-25 19-12 10-26 18l-24 17-1 1 12-43 6-4q25-16 48-34"/><path fill="#111f3b" d="M774 861v13l2 17v18l2 23v24q0 2-3 3h-9l4-33 1-21 2-34z"/><path fill="#d9d9d9" d="M0 870h26v25H0z"/><path fill="#d8d8d8" d="M1024 870v25h-26v-25z"/><path fill="#101e38" d="m297 871 10 14 10 15q4 3 8 8t6 12h4v3h4l5 10 8 8 5 8 6 5-1 2h-6q6 1 10 3h-11q-1-3-3-5l-6-5-6-7-7-9-6-8-7-7-12-17-9-11v-13z"/><path fill="#111f39" d="M724 877q4 6 1 12-7 14-17 24l-10 13-14 15-6 10-6 5-1 3h-10l-2-4h11l-7-2 7-6 6-9 12-15q7-5 10-12l7-9 7-10 5-4z"/><path fill="#1b59be" d="m543 887 12 40-2 1q-9 5-18 11l-23 18h-36q-6 0-8-2v-14l24-17q14-8 26-18 13-9 25-19"/><path fill="#d8d8d7" d="M973 895h25v26h-25v22q0 2-2 4h-23l-1-24 2 1v-3h24z"/><path fill="#d9d9d9" d="M999 921h25v26h-26q-1-14 1-26"/><path fill="#fdfdfd" d="M77 922h25v25h26v26h21q3 1 4-2v-24q11 1 21-1l5 2v24l25 1q1-8-2-15l2-3 24 4h1l1 14h25v25h-26v-25h-25v25h25v26h-25v-26l-25 1v25h-26v-26h-25v26h-26v-26h25v-25h-25v25H76l1-25h25v-26H77z"/><path fill="#4f8bbd" d="m555 927 5 20 2 7-4 6h-51l4-3h41q5 0 7-4l-1-6q-4-10-5-19z"/><path fill="#3f8fe4" d="M553 928q1 9 5 19l1 6q-2 4-7 4h-40l23-18q9-6 18-11"/><path fill="#2b5998" d="m467 942 1-1v14q2 2 8 2h35l-4 3h-41l-2-7z"/><path fill="#d9d9d9" d="M849 946q10 2 21 1l1 11v13q-2 3-5 2h-21v25h-25v-25h-25c-1-4 1-10-2-14h2l25-4v18h25l1-20q0-3-3-5z"/><path fill="#dadada" d="M996 947q2 0 2 4v22h-25v25h25v-25h26v26h-25v25h-26v-26l-17 1-8-1-1-9 1-16h-26v25h25v26h-51v-25h-25v25h-25v-25l19-1h6v-25h50q1-12 1-24 1-2 4-2h22v26h25v-26z"/><path fill="#fefefe" d="M0 947h25v26H0z"/><path fill="#dcddda" d="m179 948 25 7-2 3q3 7 2 15l-25-1z"/><path fill="#fcfdfd" d="M843 948q3 2 3 5l-1 20h-25v-18l5-1z"/><path fill="#d9d9d9" d="m229 959 6 1h23l-3 1v12h25v-13h27l-1 13h-25v22l-1 3h-25v26h-26v-26h-25v-25h25v25h26v-25h-25z"/><path fill="#fafdfb" d="M258 960h22v13h-25v-12z"/><path fill="#fbfcfa" d="M307 960h24l1 13h-26v25h-25v-25h25z"/><path fill="#d9d9d9" d="M331 960h26v13h26v25h27v-25h25v-13h26v13h25l1-10h24l1 10h26v20q-1 3 1 6l5-1h19l1-25h25v25h25l1-25h26v25h26v26h-26v-25h-25l-1 8v17h-26v-26h-25q-2 14-1 26h-25v-26l-26 1v25h-26v-26l-25 1v25h-26v-25h-25v25h-27v-25l-26-1v-25h-25q0 13-1 25l-25 1v25h-25v-26h25v-25h26z"/><path fill="#f9fbfa" d="M357 960h26v13h27v-13h25v13h-25v25h-27v-25h-26z"/><path fill="#d9dadb" d="M383 960h27v13h-27z"/><path fill="#c7def1" d="M461 960h100l-6 3h-17l-1-2h-13q-6 0-13 2h-24q-3-2-6-2z"/><path fill="#d8d9d8" d="M561 960h3l-1 13-26-1 1-9h17z"/><path fill="#fbfbfb" d="M564 960h25v13h25l1-13h25l1 13h26v-13h25v13h26v25h-26v-23q-1-2-4-2h-21v25l25 1v25h-25v-26h-26v-25h-26l-1 25h-25v-25h-25l-1 25h-19l-5 1q-2-3-1-6v-20h-26l-1-10q7-3 13-2h13l1 2-1 9 26 1z"/><path fill="#d9dadb" d="M589 960h26l-1 13h-25z"/><path fill="#dbdcdb" d="M640 960h27v13h-26z"/><path fill="#dadada" d="M692 960h26v13h26l-1-13h26v13h26v25l25 1v25h-25v-26h-26v-25h-25v25h25v26h-26v-26l-25 1v25h-26v-25l-25-1v-25h21q4-1 4 2v23h26v-25h-26z"/><path fill="#f9fdfa" d="M718 960h25l1 13h-26z"/><path fill="#fdfdfd" d="m769 960 24-1c3 4 1 10 2 14h25v25h45l-19 1v25h-26v-25l-25-1v-25h-26z"/><path fill="#f9fcfa" d="M461 961h20q3 0 6 2l-1 10h-25z"/><path fill="#d9d9d9" d="M178 973v25h-25v-25z"/><path fill="#fdfdfd" d="M26 973h25v25l26 1v25H51v-26H26v26H0v-26h25z"/><path fill="#fcfcfc" d="M332 973h25v25l26 1v25h-26v-25l-25-1v26h-26v-25l25-1q1-12 1-25"/><path fill="#fafafa" d="m461 973-1 25h-25v-25z"/><path fill="#fbfbfb" d="M512 973v25h-26l1-25z"/><path fill="#fefefe" d="M744 973h25v25h26v26h-26v-26h-25z"/><path fill="#fcfcfc" d="M922 973h26l-1 16 1 9 8 1 17-1v26h-26v-26h-25z"/><path fill="#fefefe" d="M281 995v29h-26v-26h25z"/><path fill="#dadada" d="M26 998h25v26H26z"/><path fill="#d9d9d9" d="M128 998h25v26h-25zM204 998v26h-25v-25zM332 998l25 1v25h-25z"/><path fill="#fbfbfb" d="M435 999v25h-25v-25z"/><path fill="#fafafa" d="M486 998v26h-25v-25z"/><path fill="#fbfbfb" d="M538 998v26h-26v-25zM564 998h25v26h-26q-1-12 1-26"/><path fill="#fbfbf9" d="M641 999v25h-26v-17l1-8z"/><path fill="#fefefe" d="M743 998v26h-25v-25z"/><path fill="#fdfdfd" d="M871 999h25v25h-25zM999 999h25v25h-25z"/></svg>